<?xml version="1.0" encoding="UTF-8" standalone="no"?>
<!-- Created with Inkscape (http://www.inkscape.org/) -->

<svg
   xmlns:dc="http://purl.org/dc/elements/1.1/"
   xmlns:cc="http://creativecommons.org/ns#"
   xmlns:rdf="http://www.w3.org/1999/02/22-rdf-syntax-ns#"
   xmlns:svg="http://www.w3.org/2000/svg"
   xmlns="http://www.w3.org/2000/svg"
   xmlns:xlink="http://www.w3.org/1999/xlink"
   xmlns:sodipodi="http://sodipodi.sourceforge.net/DTD/sodipodi-0.dtd"
   xmlns:inkscape="http://www.inkscape.org/namespaces/inkscape"
   width="200mm"
   height="200mm"
   viewBox="0 0 708.66141 708.66142"
   id="svg2"
   version="1.1"
   inkscape:version="0.91 r13725"
   sodipodi:docname="logo.svg"
   inkscape:export-filename="C:\Users\johnvial\source\badAdvice\lowres.png"
   inkscape:export-xdpi="13.716"
   inkscape:export-ydpi="13.716">
  <defs
     id="defs4">
    <linearGradient
       inkscape:collect="always"
       id="linearGradient4241">
      <stop
         style="stop-color:#de8787;stop-opacity:1;"
         offset="0"
         id="stop4243" />
      <stop
         style="stop-color:#de8787;stop-opacity:0;"
         offset="1"
         id="stop4245" />
    </linearGradient>
    <linearGradient
       inkscape:collect="always"
       id="linearGradient4215">
      <stop
         style="stop-color:#ffcc00;stop-opacity:1;"
         offset="0"
         id="stop4217" />
      <stop
         style="stop-color:#ffcc00;stop-opacity:0;"
         offset="1"
         id="stop4219" />
    </linearGradient>
    <radialGradient
       inkscape:collect="always"
       xlink:href="#linearGradient4215"
       id="radialGradient4221"
       cx="317.40787"
       cy="33.648319"
       fx="317.40787"
       fy="33.648319"
       r="355.5371"
       gradientTransform="matrix(-0.13756991,0.71563076,-0.98061874,-0.12995271,394.06791,-192.29511)"
       gradientUnits="userSpaceOnUse" />
    <radialGradient
       inkscape:collect="always"
       xlink:href="#linearGradient4241"
       id="radialGradient4247"
       cx="-235.25679"
       cy="836.88959"
       fx="-235.25679"
       fy="836.88959"
       r="358.53151"
       gradientTransform="matrix(0.10550116,-0.56715675,1.3699061,0.25480436,-757.31996,317.07463)"
       gradientUnits="userSpaceOnUse" />
  </defs>
  <sodipodi:namedview
     id="base"
     pagecolor="#ffffff"
     bordercolor="#666666"
     borderopacity="1.0"
     inkscape:pageopacity="0.0"
     inkscape:pageshadow="2"
     inkscape:zoom="1.0018656"
     inkscape:cx="281.64558"
     inkscape:cy="341.1646"
     inkscape:document-units="px"
     inkscape:current-layer="layer2"
     showgrid="false"
     fit-margin-top="0"
     fit-margin-left="0"
     fit-margin-right="0"
     fit-margin-bottom="0"
     inkscape:window-width="1500"
     inkscape:window-height="977"
     inkscape:window-x="-8"
     inkscape:window-y="-8"
     inkscape:window-maximized="1" />
  <metadata
     id="metadata7">
    <rdf:RDF>
      <cc:Work
         rdf:about="">
        <dc:format>image/svg+xml</dc:format>
        <dc:type
           rdf:resource="http://purl.org/dc/dcmitype/StillImage" />
        <dc:title></dc:title>
      </cc:Work>
    </rdf:RDF>
  </metadata>
  <g
     inkscape:groupmode="layer"
     id="layer2"
     inkscape:label="Layer 2">
    <rect
       style="fill:url(#radialGradient4221);fill-opacity:1;stroke:#045dff;stroke-width:0.36449647;stroke-linejoin:round;stroke-miterlimit:4;stroke-dasharray:none;stroke-opacity:1"
       id="rect4205"
       width="710.70972"
       height="585.9425"
       x="-0.017751761"
       y="3.9583113" />
    <rect
       style="fill:url(#radialGradient4247);fill-opacity:1;stroke:#045dff;stroke-width:0.40000001;stroke-linejoin:round;stroke-miterlimit:4;stroke-dasharray:none;stroke-opacity:1"
       id="rect4239"
       width="716.66302"
       height="281.47488"
       x="-1.9962758"
       y="427.18655" />
  </g>
  <g
     inkscape:label="Layer 1"
     inkscape:groupmode="layer"
     id="layer1"
     transform="translate(-50.189528,90.50015)">
    <path
       style="fill:#ff0000;fill-opacity:1;stroke:#045dff;stroke-width:0.40000001;stroke-linejoin:round;stroke-miterlimit:4;stroke-dasharray:none;stroke-opacity:1"
       id="path4144"
       d="m 96.685388,96.750653 c 7.945002,12.297877 15.743982,24.662757 22.815872,37.486457 4.25054,8.09155 7.65376,16.61416 10.1584,25.40517 1.25476,4.40407 1.63039,6.64508 2.53274,11.05814 1.6773,7.94706 1.8665,15.976 1.01509,24.01846 -0.9161,7.06519 -2.76345,13.95395 -5.05303,20.68521 -1.5147,4.48964 -3.60536,8.73956 -5.69849,12.9784 -0.57052,1.05575 -1.01245,2.16455 -1.41605,3.29131 0,0 -13.33082,6.27114 -13.33082,6.27114 l 0,0 c 0.36439,-1.22515 0.76895,-2.43031 1.40644,-3.54808 2.27212,-4.21015 4.51956,-8.45068 6.14601,-12.96163 2.38894,-6.62637 4.20259,-13.44125 5.24523,-20.41694 0.88297,-7.94469 0.93979,-15.91542 -0.49631,-23.81618 -2.28167,-12.6413 -6.04032,-24.92827 -12.06555,-36.33109 -6.91352,-12.84931 -14.460764,-25.40079 -23.618713,-36.79998 0,0 12.359181,-7.320387 12.359181,-7.320387 z"
       inkscape:connector-curvature="0" />
    <path
       style="fill:#ff0000;fill-opacity:1;stroke:#045dff;stroke-width:0.40000001;stroke-linejoin:round;stroke-miterlimit:4;stroke-dasharray:none;stroke-opacity:1"
       id="path4146"
       d="m 94.670568,94.170253 c 4.310329,-5.63547 9.440372,-10.61731 14.721412,-15.33318 11.08345,-8.89452 23.52874,-16.10496 36.32144,-22.23466 7.63749,-3.67292 15.70417,-6.25316 23.84952,-8.51774 6.94909,-1.95798 14.03412,-3.22051 21.22394,-3.78248 5.00572,-0.5 9.23808,-0.49997 13.9315,1.40814 3.16176,1.63219 5.99735,4.09067 7.29913,7.48986 0.27018,0.70551 0.41802,1.45197 0.62703,2.17795 1.31486,6.80228 -1.02927,13.17347 -3.78295,19.28979 -4.47005,9.17425 -10.89941,17.13669 -17.51637,24.82756 -7.84152,8.975507 -16.52692,17.123887 -25.52071,24.921387 -6.85301,6.01314 -14.31797,11.22952 -21.74411,16.49071 -3.56858,2.63395 -7.15371,5.24592 -10.79259,7.78216 -19.20825,10.07215 -15.59399,6.10461 -8.43463,1.47672 0.88357,-0.53124 1.75667,-1.08029 2.6507,-1.59372 5.11158,-2.93556 10.18534,-5.9401 15.36548,-8.75289 1.27258,-0.691 2.64042,-1.1908 3.97634,-1.7496 4.88916,-2.04511 9.87125,-3.72442 14.91194,-5.34816 8.71014,-2.73022 17.59545,-5.04855 26.69293,-5.96295 5.92604,-0.69609 11.67147,0.0664 17.40161,1.52776 3.99067,1.47755 8.02071,3.25279 11.3911,5.90927 2.28623,1.80196 2.89767,2.72672 4.78076,4.91693 2.853,4.329 5.13361,9.3301 5.10786,14.62699 -0.005,0.96809 -0.1676,1.92894 -0.2514,2.89341 -1.52381,7.51088 -5.12282,14.37005 -8.99226,20.90914 -6.4375,9.53901 -14.78408,17.54013 -23.19733,25.30548 -9.52581,9.22027 -20.52595,16.65333 -31.67256,23.74166 -11.8713,7.24652 -23.91032,14.28402 -37.04854,18.93666 -2.50298,0.69452 -4.90984,1.67686 -7.48695,2.04864 0,0 11.73055,-8.84503 11.73055,-8.84503 l 0,0 c 2.38582,-0.52289 4.70468,-1.29729 7.04001,-2.00703 3.43631,-1.23234 6.77707,-2.59453 10.0922,-4.12998 1.50748,-0.69821 5.7589,-3.22683 4.49964,-2.14318 -0.85867,0.73892 -15.14095,8.97618 -1.50177,1.06281 11.18159,-7.006 22.24251,-14.33784 31.78722,-23.52159 8.28064,-7.62516 16.49809,-15.45222 22.92778,-24.75897 3.81255,-6.32367 7.30131,-12.9575 8.95104,-20.21161 0.11378,-0.89086 0.29991,-1.77543 0.34134,-2.67257 0.23155,-5.01412 -1.79831,-9.79106 -4.53153,-13.87466 -0.71288,-0.81503 -1.37311,-1.67931 -2.13865,-2.44509 -3.73308,-3.73424 -8.69039,-6.00364 -13.65795,-7.57175 -5.59172,-1.3008 -11.22076,-1.90568 -16.96317,-1.23747 -8.92301,0.9816 -17.65092,3.23284 -26.19309,5.95533 -5.07963,1.69141 -10.10487,3.4281 -14.99776,5.61673 -1.36685,0.61139 -5.29477,2.77351 -4.05329,1.93637 2.89913,-1.95492 6.03021,-3.54164 9.04947,-5.30536 0.85201,-0.4977 -1.69845,1.00487 -2.54768,1.50731 -0.38119,0.23996 -2.8297,1.76278 -3.40103,2.18053 -0.38605,0.28228 -1.15229,1.05297 -1.67749,1.28067 -4.68703,2.03199 -9.40324,3.99617 -14.11788,5.96325 -0.15735,0.0656 0.2947,-0.17154 0.44205,-0.25731 3.7743,-2.6559 7.67703,-5.13661 11.31836,-7.98519 7.55873,-5.29659 15.20948,-10.47451 22.19936,-16.52978 9.06076,-7.68333 17.7462,-15.80447 25.6028,-24.73333 6.55158,-7.542847 12.86996,-15.364437 17.3862,-24.336017 2.63301,-5.72747 5.02607,-11.79095 3.8261,-18.20036 -0.16848,-0.64418 -0.27269,-1.30869 -0.50542,-1.93255 -1.1462,-3.07247 -3.81887,-5.25101 -6.72332,-6.55561 -4.35611,-1.47929 -8.82438,-1.47551 -13.37926,-1.01876 -7.07597,0.63553 -14.06985,1.88238 -20.89795,3.87799 -8.07528,2.32419 -16.07443,4.92925 -23.63086,8.65745 -6.91527,3.36633 -4.60376,2.38896 3.63325,-2.66279 1.44195,-0.88435 -2.92188,1.70634 -4.35497,2.60497 -4.03422,2.5297 -7.94367,5.27544 -11.64784,8.2683 -5.15355,4.46062 -10.04241,9.29336 -14.24208,14.67567 0,0 -13.476672,5.94377 -13.476672,5.94377 z"
       inkscape:connector-curvature="0" />
    <path
       style="fill:#ff0000;fill-opacity:1;stroke:#045dff;stroke-width:0.40000001;stroke-linejoin:round;stroke-miterlimit:4;stroke-dasharray:none;stroke-opacity:1"
       id="path4148"
       d="m 228.17994,196.87802 c 6.69556,-19.05838 12.94378,-38.27553 19.12163,-57.50772 6.8064,-20.6647 12.44022,-41.685267 19.65458,-62.214217 5.065,-13.23671 10.58317,-26.3021 16.27338,-39.28167 1.1735,-2.57748 2.18055,-5.25704 3.59561,-7.72046 0.0189,-0.0329 1.0339,-1.67523 1.32208,-1.83748 4.4358,-2.49747 8.97191,-4.81246 13.45786,-7.21869 2.16894,1.57198 3.5172,3.92644 4.85269,6.18835 2.10554,3.56613 2.07012,3.57998 4.1568,7.39396 6.03759,11.27286 12.51647,22.30296 18.42324,33.64401 7.84865,16.07835 14.81246,32.582957 21.16975,49.302447 5.70596,15.50392 9.68794,31.53845 13.38758,47.61343 2.16906,9.88943 4.46662,19.74986 6.66835,29.63184 0.58136,2.79812 0.42343,1.54126 0.59476,3.75341 0,0 -13.10998,6.61027 -13.10998,6.61027 l 0,0 c 0.36273,-2.05424 0.27031,-0.83993 -0.0388,-3.65326 -1.76333,-10.03971 -3.96196,-19.99492 -5.93811,-29.99336 -3.34462,-16.12055 -7.32355,-32.13489 -12.96658,-47.6239 -6.25708,-16.69462 -13.16158,-33.155047 -21.32879,-49.016937 -6.12802,-11.20592 -12.60257,-22.21947 -18.98843,-33.28005 -1.91839,-3.27523 -2.3331,-4.11703 -4.38978,-7.14775 -0.75137,-1.10722 -2.7619,-4.44322 -4.4107,-4.58861 4.06398,-2.36586 8.12796,-4.73171 12.19194,-7.09757 -1.00965,0.47653 -0.95507,0.32921 -1.76919,1.41146 -1.78617,2.37445 -2.85296,5.22406 -4.19812,7.8404 -6.22773,12.9807 -11.98502,26.2018 -17.24673,39.60188 -7.48038,20.59316 -13.39452,41.693817 -20.31481,62.477087 -5.98756,18.81432 -11.96484,37.63874 -17.25245,56.66458 0,0 -12.91777,6.04855 -12.91777,6.04855 z"
       inkscape:connector-curvature="0" />
    <path
       style="fill:#ff0000;fill-opacity:1;stroke:#045dff;stroke-width:0.40000001;stroke-linejoin:round;stroke-miterlimit:4;stroke-dasharray:none;stroke-opacity:1"
       id="path4150"
       d="m 284.14416,124.03815 c 10.69062,-3.2087 21.21325,-6.93427 31.60058,-11.01319 5.95502,-2.30514 11.73951,-4.99359 17.36162,-8.01273 0,0 -11.08121,8.89561 -11.08121,8.89561 l 0,0 c -5.52979,2.80053 -11.1978,5.30277 -16.98848,7.52025 -10.69975,4.11107 -21.51486,7.89317 -32.3918,11.50907 0,0 11.49929,-8.89901 11.49929,-8.89901 z"
       inkscape:connector-curvature="0" />
    <path
       style="fill:#ff0000;fill-opacity:1;stroke:#045dff;stroke-width:0.40000001;stroke-linejoin:round;stroke-miterlimit:4;stroke-dasharray:none;stroke-opacity:1"
       id="path4152"
       d="m 416.74991,28.158513 c 3.23475,10.34657 6.43125,20.72317 9.02205,31.25433 1.87315,7.61402 2.57084,11.55374 4.08948,19.18409 1.88325,10.40828 3.41006,20.90077 3.43351,31.498307 0.0151,6.82922 -0.24166,8.48792 -0.74917,15.38709 -1.22231,11.52679 -3.08895,23.02392 -5.65072,34.33341 -1.23826,5.46654 -2.43624,9.45787 -3.94465,14.7961 -1.7721,4.93486 -3.45192,10.11305 -6.56384,14.42049 -0.58011,0.80298 -1.3331,1.46563 -1.99965,2.19844 0,0 -13.23968,5.45807 -13.23968,5.45807 l 0,0 c 0.78133,-0.66731 1.6663,-1.22959 2.344,-2.00194 3.57397,-4.07311 5.38603,-9.403 7.34388,-14.3335 4.89618,-15.93632 8.45531,-32.28483 9.83938,-48.92776 0.47249,-6.93535 0.68949,-8.35516 0.6941,-15.21704 0.007,-10.57988 -1.11912,-21.110757 -2.89317,-31.533147 -0.5901,-3.13461 -1.11129,-6.28298 -1.7703,-9.40382 -2.8969,-13.71861 -6.98836,-27.24569 -12.35526,-40.19865 0,0 12.40004,-6.91447 12.40004,-6.91447 z"
       inkscape:connector-curvature="0" />
    <path
       style="fill:#ff0000;fill-opacity:1;stroke:#045dff;stroke-width:0.40000001;stroke-linejoin:round;stroke-miterlimit:4;stroke-dasharray:none;stroke-opacity:1"
       id="path4154"
       d="m 439.182,15.770833 c 6.81122,-0.15892 13.58245,-0.89192 20.39557,-1.00848 11.46955,-0.0225 22.8985,1.29596 34.2482,2.83235 15.88055,2.27964 31.61451,5.35854 47.20015,9.14446 7.69959,1.92228 15.08435,4.83001 22.25384,8.19842 4.07414,1.91413 8.38722,4.07232 12.10933,6.64103 1.73431,1.19689 3.30868,2.61039 4.96301,3.91559 4.9719,5.0008 9.54503,10.91421 11.30728,17.89666 0.90923,3.60255 0.74936,5.8108 0.82784,9.48253 -0.7356,7.85637 -3.63597,15.33884 -7.40308,22.22767 -2.34269,4.28401 -4.64578,7.425667 -7.39975,11.440517 -8.14833,10.89178 -18.58512,19.71659 -29.97688,27.06048 -2.47675,1.59668 -5.05624,3.02806 -7.58436,4.5421 -19.75581,12.89789 -41.03031,19.66387 -63.47054,25.90998 -18.73172,5.03171 -37.4905,9.95836 -56.20949,15.03911 -7.09566,2.04203 -14.29347,3.62545 -21.53499,5.03541 0,0 10.82449,-8.18299 10.82449,-8.18299 l 0,0 c 7.07513,-1.34215 14.10076,-2.87845 21.04936,-4.78672 18.68486,-4.96596 37.38004,-9.89349 56.04545,-14.93184 9.44253,-2.67815 18.84907,-5.37006 28.05933,-8.78669 2.89372,-1.07346 5.76861,-2.20098 8.60935,-3.40768 2.70651,-1.14968 5.18722,-2.89593 8.027,-3.65918 1.40442,-0.37747 -2.39815,1.64573 -3.59722,2.46859 2.5289,-1.48271 5.10964,-2.88034 7.58669,-4.44813 11.30187,-7.15324 21.66315,-15.7677 29.78281,-26.45812 2.71925,-3.88698 5.09344,-7.06937 7.40923,-11.22042 3.70848,-6.647477 6.52205,-13.888227 7.34812,-21.486147 -0.015,-3.59107 0.17801,-5.55363 -0.63432,-9.08224 -1.56162,-6.78336 -5.76278,-12.57302 -10.60379,-17.39805 -1.60102,-1.27313 -3.12533,-2.6492 -4.80305,-3.81939 -10.04185,-7.0041 -22.19002,-11.36708 -33.8677,-14.67697 -15.58995,-3.85332 -31.39563,-6.76101 -47.31586,-8.88071 -11.48745,-1.40191 -23.04728,-2.57005 -34.63687,-2.2945 -6.96081,0.21984 -13.90547,0.8325 -20.83661,1.4881 0,0 11.82746,-8.79474 11.82746,-8.79474 z"
       inkscape:connector-curvature="0" />
    <path
       style="fill:#0000ff;fill-opacity:1;stroke:#045dff;stroke-width:0.40000001;stroke-linejoin:round;stroke-miterlimit:4;stroke-dasharray:none;stroke-opacity:1"
       id="path4156"
       d="m 117.45765,358.43953 c 0.50517,8.50895 0.94461,17.01742 1.65109,25.51255 0.59216,6.61495 0.6763,13.26141 1.13958,19.88291 0.3101,4.41817 0.7188,8.82917 0.92573,13.25402 0.1356,2.81986 0.14846,5.64338 0.1705,8.46583 0.0358,2.26722 -0.0374,4.53493 0.0252,6.80166 0.0115,0.17982 0.023,0.35963 0.0345,0.53944 0,0 -13.23405,6.74091 -13.23405,6.74091 l 0,0 c 0.012,-0.19161 0.0239,-0.38322 0.0359,-0.57483 0.0657,-2.27601 0.002,-4.55321 0.0374,-6.82977 0.0149,-2.82265 0.0125,-5.64549 -0.0476,-8.46769 -0.13329,-4.44267 -0.35686,-8.88151 -0.73262,-13.31102 -0.39566,-6.66119 -0.2664,-13.35079 -0.87364,-20.00367 -0.56953,-8.43301 -0.79357,-16.90571 -1.98311,-25.28223 0,0 12.8511,-6.72811 12.8511,-6.72811 z"
       inkscape:connector-curvature="0" />
    <path
       style="fill:#0000ff;fill-opacity:1;stroke:#045dff;stroke-width:0.40000001;stroke-linejoin:round;stroke-miterlimit:4;stroke-dasharray:none;stroke-opacity:1"
       id="path4158"
       d="m 130.70786,345.97275 c 5.63536,-1.26605 11.35785,-1.85672 17.12358,-1.66518 8.30839,0.68132 15.21877,3.92381 22.29582,8.06909 4.59914,2.88969 8.45612,6.76734 11.48303,11.27302 1.49532,2.22585 2.4032,4.20892 3.59806,6.58542 3.08902,6.35975 3.39816,13.39725 3.17873,20.33244 -0.42414,6.27197 -2.83217,11.53763 -5.74054,16.98704 -3.6441,6.47382 -8.32785,12.20399 -13.48543,17.51338 -8.17069,7.71498 -17.95419,13.69524 -28.18641,18.2837 -4.2992,1.59128 -8.81333,2.54661 -13.35641,3.10321 -2.96902,0.53903 -5.78465,0.17333 -8.64051,-0.64625 -2.09855,-0.748 -4.03388,-1.80634 -5.96092,-2.9015 -0.22153,-0.0622 -0.44305,-0.1244 -0.66458,-0.1866 0,0 12.30591,-8.23717 12.30591,-8.23717 l 0,0 c 0.24778,0.1277 0.49557,0.2554 0.74336,0.38309 1.8079,1.06586 3.6981,1.99058 5.71043,2.60887 2.70078,0.6908 5.41168,0.71582 8.16867,0.26754 4.41316,-0.63915 8.81782,-1.57365 12.93334,-3.33544 5.21411,-2.55739 5.79145,-2.91603 -7.11136,4.39231 -0.9029,0.51141 1.77199,-1.08188 2.63078,-1.66433 2.94692,-1.99866 5.77434,-4.20406 8.36322,-6.6495 5.19847,-5.13553 9.84081,-10.75447 13.52855,-17.08989 2.83443,-5.17883 5.37912,-10.42325 5.98305,-16.39164 0.41178,-6.71788 0.21476,-13.56122 -2.74482,-19.74909 -1.15818,-2.39523 -1.91216,-4.15507 -3.39749,-6.39199 -2.90488,-4.37476 -6.70874,-8.03596 -11.15241,-10.82018 -6.90906,-3.99087 -13.91976,-7.03613 -22.02241,-7.37884 -5.84817,0.01 -11.65707,0.67495 -17.31165,2.2279 0,0 11.72841,-8.91941 11.72841,-8.91941 z"
       inkscape:connector-curvature="0" />
    <path
       style="fill:#0000ff;fill-opacity:1;stroke:#045dff;stroke-width:0.40000001;stroke-linejoin:round;stroke-miterlimit:4;stroke-dasharray:none;stroke-opacity:1"
       id="path4160"
       d="m 220.28163,412.80668 c 3.57662,-4.27139 6.29259,-9.06108 8.42693,-14.18526 1.24208,-4.10916 2.30324,-6.43943 -1.00103,-9.69173 -3.69396,-1.69412 -7.81344,-1.11289 -11.64459,-0.27638 -0.77401,0.26402 -1.57318,0.46338 -2.32202,0.79207 -0.79307,0.3481 -3.04426,1.65353 -2.288,1.23138 3.32642,-1.85685 6.55512,-3.90625 9.9987,-5.53558 0.89836,-0.42507 -1.55951,1.23415 -2.30257,1.89416 -1.74077,1.54621 -2.48861,2.44096 -4.07038,4.15264 -3.9949,4.37938 -6.05396,9.82419 -7.30005,15.51976 -0.83309,4.08768 -0.71111,8.19639 0.26307,12.23371 1.07663,4.54686 3.11264,8.65628 5.68811,12.51957 3.10249,4.24334 6.09252,6.16307 11.00637,7.78396 2.84654,0.74071 5.8297,1.22734 8.76385,0.83954 1.78681,-0.15281 3.39417,-0.83871 4.94683,-1.68915 0.43509,-0.23831 1.72746,-0.97641 1.2973,-0.7293 -3.73433,2.14524 -7.47325,4.28248 -11.20988,6.42372 1.24566,-0.68356 2.31061,-1.5829 3.3335,-2.55357 0,0 13.55126,-5.67186 13.55126,-5.67186 l 0,0 c -0.94383,1.14306 -1.92923,2.19498 -3.2296,2.95202 -4.62035,2.67555 -9.22664,5.37553 -13.86104,8.02667 -2.03975,1.16684 -4.3099,1.82526 -6.65248,1.96124 -3.0569,0.0446 -6.07761,-0.41738 -8.96906,-1.43945 -4.89896,-1.90988 -8.36041,-4.23386 -11.42827,-8.60711 -2.66561,-3.9915 -4.85779,-8.2065 -5.98372,-12.90863 -1.16532,-4.21979 -1.37533,-8.53748 -0.52859,-12.85372 1.22992,-5.85255 3.23383,-11.57995 7.09692,-16.25047 1.42647,-1.63263 4.45967,-5.23424 6.21492,-6.35373 6.24187,-3.98102 12.31738,-8.54895 19.5229,-10.45897 4.24044,-0.70188 8.84312,-1.13004 12.59989,1.37866 3.64386,3.99643 3.04418,6.34385 1.53361,11.29864 -2.03645,5.06538 -4.52793,9.95294 -7.90637,14.27011 0,0 -13.54651,5.92706 -13.54651,5.92706 z"
       inkscape:connector-curvature="0" />
    <path
       style="fill:#0000ff;fill-opacity:1;stroke:#045dff;stroke-width:0.40000001;stroke-linejoin:round;stroke-miterlimit:4;stroke-dasharray:none;stroke-opacity:1"
       id="path4162"
       d="m 261.87593,406.42089 c 4.88594,-3.35608 9.17422,-7.463 13.05497,-11.92155 0.9435,-1.51431 2.75196,-3.4937 2.44358,-5.49238 -0.11059,-0.71674 -0.61286,-1.02787 -1.09273,-1.48955 -2.13694,-1.46203 -4.49584,-1.56617 -6.9527,-1.0976 -2.66688,0.75521 -5.4243,1.4977 -7.92785,2.71991 -0.8182,0.39943 -3.17793,1.77878 -2.3781,1.34373 3.24137,-1.76307 6.46864,-3.55195 9.70295,-5.32792 -5.63067,4.31 -9.10755,10.3289 -11.90611,16.70337 -2.18842,6.08255 -2.87938,12.51703 -2.35804,18.93151 1.01811,5.06578 3.73808,6.82918 8.41164,8.31279 4.7054,0.95428 9.38039,0.53771 14.00113,-0.57176 5.7594,-1.24231 21.49669,-10.53874 -0.0623,1.53769 0,0 13.4472,-5.25394 13.4472,-5.25394 l 0,0 c -8.1856,4.81929 -15.66693,10.15458 -24.89442,12.46216 -4.80342,0.94537 -9.6723,1.1996 -14.45846,-0.0719 -5.33357,-1.96966 -7.93919,-4.03025 -9.25316,-9.76606 -0.47074,-6.64154 0.27194,-13.2943 2.28749,-19.65648 2.7145,-6.62433 5.97258,-12.62798 11.48242,-17.38257 8.19066,-4.93695 16.04122,-10.99778 25.64163,-12.73966 2.8548,-0.21196 5.53661,0.29764 7.7759,2.20793 0.74484,0.84019 1.35446,1.33425 1.65487,2.48168 0.60438,2.30836 -1.21828,4.70058 -2.26745,6.53042 -3.8465,4.44827 -8.02962,8.59492 -12.71447,12.16829 0,0 -13.63796,5.37192 -13.63796,5.37192 z"
       inkscape:connector-curvature="0" />
    <path
       style="fill:#0000ff;fill-opacity:1;stroke:#045dff;stroke-width:0.40000001;stroke-linejoin:round;stroke-miterlimit:4;stroke-dasharray:none;stroke-opacity:1"
       id="path4164"
       d="m 319.95925,410.53483 c -0.24754,5.96928 -0.19978,11.94711 -0.16357,17.92015 -0.10326,4.27181 0.21026,8.55267 0.10513,12.82211 0.0124,0.17585 0.1944,0.44755 0.0373,0.52755 -14.59768,7.43431 -13.58374,10.19081 -13.89621,0.46027 -0.12671,-5.15031 -0.0158,-10.30082 0.0238,-15.45113 -0.29924,-8.27064 0.54392,-16.47554 1.58029,-24.66533 1.53784,-10.04118 4.42462,-19.75613 8.67057,-28.97 0.53167,-0.96545 1.01157,-1.96128 1.59503,-2.89635 3.46449,-5.55234 13.24476,-12.95388 18.64579,-11.50495 0.59164,0.15871 1.12256,0.49067 1.68385,0.736 3.64792,2.7552 6.38891,6.54872 7.96625,10.84026 0.40302,1.09651 0.66714,2.23919 1.00072,3.35879 1.10909,5.17107 1.70914,10.78016 0.14034,15.94464 -0.31084,1.02328 -0.79133,1.98713 -1.187,2.98069 -1.46083,2.53063 -1.89052,3.537 -3.81185,5.79018 -5.64941,6.62521 -15.57323,10.65261 -22.5795,14.48645 -2.9758,0.61955 -1.52173,0.53444 -4.3567,0.33645 0,0 11.78739,-8.54637 11.78739,-8.54637 l 0,0 c 2.49622,-0.14893 1.20443,0.0596 3.86024,-0.7132 -3.27995,1.99091 -6.58592,3.93956 -9.83984,5.97273 -0.88797,0.55484 1.85926,-0.96981 2.7398,-1.53636 3.86262,-2.48526 6.97494,-5.80379 9.2045,-9.81974 0.42308,-0.91055 0.93342,-1.78543 1.26925,-2.73164 1.73699,-4.89398 1.2841,-10.36612 0.27801,-15.33923 -0.30834,-1.05853 -0.53959,-2.14264 -0.92503,-3.1756 -1.45226,-3.892 -4.06714,-7.47697 -7.64398,-9.636 -0.46807,-0.0951 -0.92657,-0.28631 -1.40421,-0.28542 -0.43883,8.1e-4 -0.85604,0.19361 -1.28405,0.29041 3.65482,-2.19067 7.30965,-4.38135 10.96447,-6.57203 0.61556,-0.3521 -1.19126,0.78403 -1.70332,1.27462 -1.72504,1.65269 -2.27832,2.85763 -3.57321,4.92461 -4.59213,8.99022 -7.55266,18.64057 -9.04588,28.63426 -0.93248,8.09003 -1.64452,16.20075 -1.34231,24.35528 0.0469,5.08131 0.12243,10.16363 0.26167,15.2432 0.44091,9.62277 2.75099,3.77573 -12.69293,12.27292 -0.10783,0.0593 0.24462,-0.0273 0.36693,-0.041 0.87414,-4.18509 -0.0472,-8.63062 0.34392,-12.86515 0.0356,-5.9174 0.0875,-11.83998 -0.16357,-17.75346 0,0 13.08788,-6.66861 13.08788,-6.66861 z"
       inkscape:connector-curvature="0" />
    <path
       style="fill:#0000ff;fill-opacity:1;stroke:#045dff;stroke-width:0.40000001;stroke-linejoin:round;stroke-miterlimit:4;stroke-dasharray:none;stroke-opacity:1"
       id="path4168"
       d="m 402.82565,329.10117 c -4.33856,15.76899 -6.584,31.99336 -8.79643,48.165 -1.12287,8.63531 -2.02955,17.29547 -3.17055,25.9287 -0.74071,5.66948 -1.66177,11.30813 -2.72916,16.92434 -0.19414,2.9911 -1.5769,5.96507 -1.41643,8.97454 0.0551,0.0896 0.0756,0.21375 0.16523,0.26893 0.31073,0.19141 4.01099,-1.82 4.33963,-1.97807 5.06481,-2.87649 10.38289,-5.23482 15.7492,-7.48076 6.07299,-2.10838 12.08261,-4.44007 18.25881,-6.23423 1.6266,-0.53245 3.30807,-0.75095 5.00196,-0.89997 0,0 -11.84612,8.78318 -11.84612,8.78318 l 0,0 c -1.553,0.16743 -3.08378,0.44917 -4.5766,0.92745 -6.07091,1.83122 -12.0482,3.9827 -17.9782,6.22335 -5.45307,2.35959 -10.80115,4.91519 -16.01743,7.76372 -2.1648,1.00192 -4.98292,2.38835 -6.22142,-0.55998 -0.29422,-3.19762 1.23359,-6.31582 1.52738,-9.47995 1.19395,-5.60793 2.19389,-11.2496 2.96264,-16.93244 1.17968,-8.77854 2.54884,-17.53383 3.85173,-26.29555 2.74238,-15.9757 5.19488,-32.00106 8.09073,-47.9513 0,0 12.80503,-6.14696 12.80503,-6.14696 z"
       inkscape:connector-curvature="0" />
    <path
       style="fill:#0000ff;fill-opacity:1;stroke:#045dff;stroke-width:0.40000001;stroke-linejoin:round;stroke-miterlimit:4;stroke-dasharray:none;stroke-opacity:1"
       id="path4170"
       d="m 450.1568,398.63625 c 4.2965,-3.52996 8.32089,-7.34328 12.04629,-11.46866 1.81263,-2.33441 4.44207,-5.47467 3.41204,-8.7133 -0.14195,-0.44631 -0.42273,-0.83587 -0.63409,-1.25381 -2.4374,-2.86507 -5.02751,-3.2452 -8.5777,-3.45572 -1.89451,0.0133 -3.73474,0.55511 -5.46396,1.30542 -0.66316,0.28774 -2.56474,1.33398 -1.93615,0.97697 11.8256,-6.71641 13.51267,-8.26952 8.47357,-4.20233 -4.57869,4.27972 -6.87459,10.10871 -8.81224,15.92389 -2.21846,6.90059 -3.35008,14.07241 -3.49603,21.30574 0.17577,3.64837 0.27307,7.5945 2.41215,10.72973 0.37927,0.55589 0.85356,1.04061 1.28033,1.56091 3.76655,3.35055 8.31178,4.14255 13.17169,4.35084 5.30743,0.10593 9.93449,-2.23121 14.52409,-4.5921 -1.54881,0.91526 5.95295,-3.25628 4.48496,-2.40589 -24.21292,14.02628 -0.0527,-0.0839 6.33232,-3.75826 -21.20447,11.53415 -13.18901,8.31108 -9.3233,4.96234 0,0 13.63421,-5.79941 13.63421,-5.79941 l 0,0 c -3.34274,5.32926 -14.61674,3.27536 -15.70628,10.05159 -4.65152,2.60677 -4.58564,2.57844 9.77277,-5.70296 0.56388,-0.32522 -1.10906,0.68207 -1.67152,1.00972 -6.21912,3.62284 -12.33885,7.40437 -18.76757,10.63964 -4.75963,2.32676 -9.59475,4.36131 -15.02112,4.01454 -5.09634,-0.41523 -10.0651,-1.70534 -13.88316,-5.32163 -1.18037,-1.48977 -1.74218,-2.00167 -2.51322,-3.76865 -1.30176,-2.98324 -1.41154,-6.29957 -1.53523,-9.4922 0.28978,-7.35701 1.40834,-14.66049 3.46858,-21.74037 1.85449,-5.94039 3.92446,-11.93865 8.29615,-16.55235 5.85043,-5.38065 2.11822,-2.19364 16.22974,-10.23114 2.36248,-1.3456 5.23239,-1.81764 7.90642,-1.72921 4.1331,0.43909 6.73499,1.31931 9.4215,4.67376 0.27987,0.54249 0.63522,1.05227 0.8396,1.62747 1.30695,3.67817 -0.92572,7.23459 -3.09732,10.02075 -3.60762,4.10488 -7.51353,7.88785 -11.61154,11.50062 0,0 -13.65598,5.53406 -13.65598,5.53406 z"
       inkscape:connector-curvature="0" />
    <path
       style="fill:#0000ff;fill-opacity:1;stroke:#045dff;stroke-width:0.40000001;stroke-linejoin:round;stroke-miterlimit:4;stroke-dasharray:none;stroke-opacity:1"
       id="path4172"
       d="m 510.39882,378.20034 c -0.38467,0.0954 -0.77888,0.15825 -1.15399,0.28615 -1.13531,0.3871 -4.2357,2.25369 -3.17961,1.68496 3.49874,-1.88417 6.79581,-4.16594 10.42917,-5.77528 0.94562,-0.41885 -1.54675,1.37951 -2.23925,2.14768 -0.82502,0.91516 -1.5355,1.92743 -2.30325,2.89114 -4.7975,7.40255 -8.38537,15.71647 -10.08733,24.40068 -0.27927,1.42498 -0.41789,2.87395 -0.62684,4.31092 -0.19205,2.85731 -0.037,10.89663 3.7301,12.01699 0.4692,0.13955 0.97797,-0.0454 1.46696,-0.0681 0.63654,-0.20725 1.30291,-0.33887 1.90964,-0.62176 0.79175,-0.36916 3.03291,-1.7344 2.26209,-1.32334 -3.26083,1.73894 -6.33358,3.85937 -9.73348,5.30768 -1.09528,0.46657 1.84519,-1.5075 2.71665,-2.31861 2.28605,-2.12772 2.90692,-3.0115 4.93197,-5.40943 4.5477,-5.70119 7.40532,-12.36871 9.78275,-19.19523 1.36908,-4.10892 1.9444,-8.39924 2.16712,-12.70597 -0.10007,-1.57429 0.34955,-3.44084 -0.136,-4.90419 1.21324,5.41366 -0.0787,0.76184 12.69055,-6.24501 0.15157,-0.0832 -0.29129,0.19699 -0.39701,0.33379 -0.13492,0.17457 -0.22751,0.37992 -0.31207,0.58369 -0.23102,0.55672 -0.29061,0.99646 -0.41274,1.58747 -0.39076,2.72348 -0.34143,5.48725 -0.36478,8.23217 -0.0263,3.26467 0.007,6.52956 -0.0334,9.79407 -0.26368,4.08595 0.36696,8.06452 1.23219,12.03891 0.45993,3.07861 1.54219,5.98639 2.53802,8.91619 0,0 -12.83569,7.05521 -12.83569,7.05521 l 0,0 c -0.92857,-3.01185 -2.0093,-5.98538 -2.4631,-9.12123 -0.88273,-4.05904 -1.7836,-8.08313 -1.4517,-12.27369 -0.0476,-3.25359 -0.0294,-6.50774 -0.0474,-9.76161 4.4e-4,-2.79456 0.0262,-5.59044 0.15387,-8.38241 0.71337,-5.9462 5.57881,-17.98804 14.56681,-10.28337 0.95441,1.75272 0.25082,3.95211 0.35713,5.85917 -0.29127,4.47238 -0.94282,8.9279 -2.28868,13.21583 -2.47083,6.93241 -5.26889,13.7657 -9.71267,19.70607 -1.71973,2.1625 -5.10412,6.53314 -7.38209,8.02339 -4.82261,3.15494 -9.81018,6.05335 -14.80106,8.93472 -2.22838,1.28651 -2.53224,1.09766 -4.88395,1.36138 -0.62726,-0.19479 -1.31289,-0.25611 -1.88179,-0.58437 -4.04255,-2.33256 -4.13658,-9.69053 -3.947,-13.58893 0.22187,-1.49141 0.37113,-2.99544 0.66561,-4.47423 1.73767,-8.72634 5.33002,-17.05287 9.60628,-24.80663 0.56679,-0.80157 3.10457,-4.60868 4.13837,-5.30577 5.16131,-3.4803 12.24548,-8.89435 19.17014,-10.44414 0,0 -11.84052,8.90506 -11.84052,8.90506 z"
       inkscape:connector-curvature="0" />
    <path
       style="fill:#0000ff;fill-opacity:1;stroke:#045dff;stroke-width:0.40000001;stroke-linejoin:round;stroke-miterlimit:4;stroke-dasharray:none;stroke-opacity:1"
       id="path4174"
       d="m 552.43542,388.63552 c -0.65584,5.49449 -1.22218,10.99757 -1.59708,16.51851 3e-5,1.02657 -0.0482,2.12211 0.10031,3.15057 0.13006,0.90071 0.37653,1.01782 0.39371,0.98783 0.0821,-0.14335 0.0984,-0.56723 -0.0493,-0.49316 -4.31756,2.16559 -8.49235,4.60483 -12.73853,6.90724 0.1039,-0.097 0.24184,-0.16724 0.3117,-0.29104 0.13954,-0.24728 0.36615,-1.32365 0.41466,-1.49769 0.52603,-1.88725 1.07795,-3.7377 1.53053,-5.64752 1.41886,-6.20148 2.5098,-12.46796 4.01885,-18.64877 1.34406,-5.2456 3.53083,-10.23857 6.34293,-14.85479 5.84661,-8.29581 10.03501,-8.97308 20.37279,-14.77953 2.62015,-0.80403 5.27358,-0.8949 7.91122,-0.20218 1.56502,0.35215 3.03996,1.02707 4.4584,1.76214 0,0 -12.36365,8.11039 -12.36365,8.11039 l 0,0 c -1.31043,-0.67674 -2.68316,-1.2289 -4.14406,-1.48439 -2.50478,-0.35545 -5.01033,-0.0996 -7.34648,0.92581 28.65183,-16.83567 10.86315,-6.907 8.53526,-4.81807 -1.56143,1.40116 -2.81113,3.08674 -4.18257,4.66265 -2.9843,4.44548 -5.21481,9.35019 -6.68563,14.50393 -1.60412,6.11584 -2.70133,12.33471 -3.91301,18.53657 -0.49769,2.64073 -1.27098,5.23426 -1.55241,7.89737 -11.44755,6.46923 -14.6418,12.28245 -14.34686,1.73254 0.50155,-5.47131 1.21636,-10.93681 1.38246,-16.42925 0,0 13.14675,-6.54916 13.14675,-6.54916 z"
       inkscape:connector-curvature="0" />
    <path
       style="fill:#0000ff;fill-opacity:1;stroke:#045dff;stroke-width:0.40000001;stroke-linejoin:round;stroke-miterlimit:4;stroke-dasharray:none;stroke-opacity:1"
       id="path4176"
       d="m 591.17636,376.77576 c -1.86153,4.94212 -3.13185,10.06661 -4.33827,15.19859 -0.96749,3.40638 -1.50277,6.91079 -2.34959,10.34356 -0.20872,0.93731 -0.52786,1.86046 -0.56206,2.82878 -0.006,0.17591 0.12215,1.02172 0.0739,0.0921 0.35191,-5.34276 0.20521,-0.4998 -12.22909,6.47211 -0.1814,0.10171 0.3072,-0.28432 0.4295,-0.45251 0.60617,-0.83366 1.08142,-1.84545 1.60139,-2.7315 2.22823,-4.23542 3.7434,-8.7902 5.5194,-13.22138 1.8802,-4.16776 3.7265,-8.38536 6.07114,-12.32119 0.5591,-0.93855 3.05026,-4.68413 3.70363,-5.67223 2.8503,-4.10658 5.98659,-7.96648 9.74731,-11.26285 5.27427,-4.03318 2.6126,-2.0836 15.01552,-8.87967 1.1359,-0.62241 2.94562,-0.3571 4.10108,0.002 1.6774,1.11532 2.47275,3.16053 2.94192,5.05034 0.46141,2.31729 0.48597,4.68467 0.51373,7.03757 0.0113,2.88735 -0.48511,5.74785 -0.72422,8.62263 -0.15355,2.71024 -0.66634,5.3814 -0.97987,8.07534 -0.14951,2.38459 -0.66578,4.7216 -0.97428,7.08691 0,0 -13.21323,6.52976 -13.21323,6.52976 l 0,0 c 0.27588,-2.37461 0.84526,-4.7011 1.03111,-7.08214 0.24277,-2.70545 0.83525,-5.36005 1.02793,-8.06854 0.23931,-2.82483 0.64664,-5.64415 0.73606,-8.47335 -0.0214,-2.24524 -0.03,-4.50574 -0.39792,-6.7267 -0.28734,-1.26691 -0.7306,-3.12331 -2.0975,-3.58444 -0.84183,-0.0343 -1.63285,0.01 -2.4389,0.29572 -0.32987,0.11698 -1.26077,0.60394 -0.96058,0.42399 22.95683,-13.76121 13.65331,-8.06582 9.94439,-5.79033 -0.99277,0.83205 -2.03784,1.60328 -2.99539,2.47563 -2.75857,2.51312 -4.85777,5.67588 -7.20554,8.54987 -1.26026,1.8692 -2.60902,3.68032 -3.80351,5.59222 -2.39125,3.82742 -4.16268,8.00445 -6.01647,12.10425 -1.80631,4.3706 -3.19753,8.90167 -5.1439,13.21841 -2.70275,5.55682 -7.64208,13.99187 -15.50473,11.1605 -1.5301,-1.53674 -0.99356,-3.08594 -0.47796,-5.02182 0.98926,-3.44311 1.56654,-6.97844 2.60579,-10.4128 1.16561,-5.10042 2.5663,-10.14305 4.0978,-15.1456 0,0 13.25144,-6.31337 13.25144,-6.31337 z"
       inkscape:connector-curvature="0" />
    <path
       style="fill:#0000ff;fill-opacity:1;stroke:#045dff;stroke-width:0.40000001;stroke-linejoin:round;stroke-miterlimit:4;stroke-dasharray:none;stroke-opacity:1"
       id="path4178"
       d="m 643.2755,369.20086 c -1.11021,3.84597 -1.80902,7.81189 -2.33283,11.77846 -0.41441,3.31561 -0.54049,6.65581 -0.58891,9.99377 -0.016,2.35019 0.009,4.70039 0.0224,7.05052 9e-4,0.93019 0.003,1.85952 0.0341,2.78915 0,0 -13.19195,6.72527 -13.19195,6.72527 l 0,0 c 0.0268,-0.93879 0.026,-1.87717 0.0212,-2.81636 5.5e-4,-2.37198 0.002,-4.74409 0.0418,-7.11582 0.0663,-3.412 0.20009,-6.82733 0.65411,-10.21358 0.53092,-3.9885 1.28001,-7.92885 1.93543,-11.89612 0,0 13.40459,-6.29529 13.40459,-6.29529 z"
       inkscape:connector-curvature="0" />
    <path
       style="fill:#0000ff;fill-opacity:1;stroke:#045dff;stroke-width:0.40000001;stroke-linejoin:round;stroke-miterlimit:4;stroke-dasharray:none;stroke-opacity:1"
       id="path4180"
       d="m 664.15187,377.6022 c -0.75585,4.034 -1.84307,8.02642 -2.20684,12.12261 -0.006,6.10364 2.33716,1.20367 -12.7871,7.41082 -0.2972,0.12197 0.34995,-0.53962 0.50342,-0.82185 0.19688,-0.36206 0.36438,-0.73935 0.54657,-1.10902 1.52294,-3.2726 2.7852,-6.65406 4.21683,-9.96732 1.35048,-3.35777 3.08837,-6.53035 4.87675,-9.6686 1.57266,-2.903 3.48837,-5.563 6.04956,-7.65914 4.40193,-2.28945 10.02281,-7.55335 15.93707,-8.45071 0.36123,-0.0548 0.72542,-0.15508 1.08929,-0.12207 0.46438,0.0421 1.54276,0.51274 1.98478,0.6918 2.11494,1.16945 2.81659,3.19768 3.54278,5.35116 0.78172,2.38962 1.18212,4.90236 1.19095,7.41369 -0.17393,2.1174 -0.4843,4.21828 -0.64516,6.33741 -0.28119,2.01066 -0.71485,3.98985 -0.9379,6.00999 0.0113,1.96458 0.38515,3.90694 0.57189,5.86119 0.0516,0.26498 0.10312,0.52996 0.15468,0.79494 0,0 -13.02467,6.9828 -13.02467,6.9828 l 0,0 c -0.0726,-0.32072 -0.14517,-0.64144 -0.21775,-0.96216 -0.16824,-2.04438 -0.49977,-4.06571 -0.69681,-6.10634 0.17336,-2.01422 0.47764,-4.00753 0.95916,-5.97308 0.13159,-2.11499 0.37818,-4.21577 0.69358,-6.31126 0.20229,-2.33677 -0.25311,-4.70121 -0.93875,-6.93291 -0.59632,-1.70841 -0.99015,-3.46185 -2.87455,-4.15829 -0.75696,-0.17363 -0.77803,-0.25379 -1.54745,-0.1402 -4.9226,0.72675 -13.81267,8.26563 8.40569,-5.67597 -2.79653,1.72853 -4.77046,4.23426 -6.3575,7.09569 -1.75654,3.13328 -3.66343,6.2045 -5.00849,9.54545 -1.36789,3.30514 -2.73745,6.60464 -4.04886,9.93201 -0.15855,0.38099 -0.31768,0.76174 -0.47564,1.14298 -0.13362,0.32245 -0.0974,0.79247 -0.39909,0.96807 -11.59493,6.74953 -14.15853,12.31335 -13.85879,5.04763 0.36834,-4.12976 1.65023,-8.10689 2.06681,-12.23134 0,0 13.23554,-6.41798 13.23554,-6.41798 z"
       inkscape:connector-curvature="0" />
    <path
       style="fill:#0000ff;fill-opacity:1;stroke:#045dff;stroke-width:0.40000001;stroke-linejoin:round;stroke-miterlimit:4;stroke-dasharray:none;stroke-opacity:1"
       id="path4182"
       d="m 715.77233,350.82065 c -2.76523,-0.0397 -5.15126,0.61126 -7.6535,1.72159 -3.51418,1.88848 -14.49217,7.80307 9.5192,-5.46508 0.62366,-0.34462 -1.21411,0.74913 -1.78821,1.17118 -2.18603,1.60705 -4.08597,3.51887 -5.97878,5.44894 -4.10367,4.70974 -6.71808,10.44695 -8.48575,16.38663 -0.93321,3.42743 -1.27221,6.93342 -0.97347,10.46322 0.371,2.22234 0.94167,4.2477 3.33375,4.81629 2.34445,0.4058 4.42269,-0.68819 6.49166,-1.64653 -21.68815,13.01418 -8.33596,5.0035 -3.92839,0.59281 2.75511,-3.23003 4.73806,-6.99319 6.21461,-10.9511 1.25799,-3.40746 2.32493,-6.87223 3.34537,-10.3563 0.81473,-2.72714 1.04877,-5.56633 1.17872,-8.39463 0.0107,-0.3881 0.0238,-0.77614 0.032,-1.1643 0.014,-0.66649 -0.0607,-2.37178 -0.0336,-2.38486 13.66445,-6.58223 13.40935,-10.66355 13.15388,-4.47724 -0.45493,8.62204 -1.55702,17.1971 -2.2161,25.80927 -0.94365,12.99541 -2.50668,25.93528 -4.22219,38.84807 -1.57125,9.82524 -2.96434,20.02069 -7.3274,29.09411 -0.6331,1.31659 -1.43421,2.54557 -2.15132,3.81836 -0.86635,1.00524 -1.65973,2.07831 -2.59905,3.01573 -0.80862,0.80699 -1.65279,1.60468 -2.62761,2.20036 -3.62689,2.2163 -11.35169,8.89847 -17.85579,8.89201 -2.74861,-0.003 -4.31916,-0.72759 -6.9267,-1.54531 -5.22795,-2.10508 -8.87195,-6.02815 -12.28599,-10.33164 0,0 12.14637,-7.24661 12.14637,-7.24661 l 0,0 c 3.46115,4.43401 6.41471,7.52257 11.83419,9.55733 2.66131,0.64415 3.93568,1.21611 6.66433,0.914 0.94668,-0.10481 3.52811,-1.29455 2.76343,-0.7267 -2.98616,2.21757 -6.29914,3.9644 -9.55208,5.76804 -1.01237,0.56133 1.93642,-1.27977 2.81554,-2.03286 0.99882,-0.85562 1.86746,-1.85244 2.8012,-2.77866 0.78294,-1.23738 1.65597,-2.42216 2.34882,-3.71215 4.76524,-8.87227 6.22156,-19.12245 7.84091,-28.9116 1.64694,-12.87251 3.23546,-25.75406 4.11381,-38.7076 0.5791,-8.40974 1.42881,-16.83169 1.36063,-25.2671 -0.23449,-6.39524 -0.46313,-1.62455 13.17127,-8.92711 0.14689,-0.0787 -0.0257,0.33231 -0.0338,0.49874 -0.0515,1.06073 -0.0384,2.12272 -0.0851,3.18365 -0.13512,2.93453 -0.35536,5.88602 -1.08039,8.7427 -1.05994,3.5238 -2.12626,7.03921 -3.43591,10.48132 -1.37761,4.11355 -3.33874,7.959 -5.90492,11.4682 -5.58669,6.39182 -13.86327,10.00299 -20.99382,14.10539 -2.38175,0.95899 -4.75523,1.76434 -7.27941,0.8043 -2.47575,-1.26468 -3.64692,-3.57293 -4.0588,-6.27749 -0.38033,-3.73069 -0.0518,-7.42302 0.92023,-11.05778 1.81037,-6.08165 4.41493,-11.97193 8.29362,-17.03403 6.598,-7.31621 13.31939,-11.56666 22.97774,-15.726 2.6375,-0.95225 5.42979,-1.48463 8.2443,-1.20226 0,0 -12.08753,8.5227 -12.08753,8.5227 z"
       inkscape:connector-curvature="0" />
    <path
       style="fill:#000000;fill-opacity:1;stroke:#045dff;stroke-width:0.40000001;stroke-linejoin:round;stroke-miterlimit:4;stroke-dasharray:none;stroke-opacity:1"
       id="path4184"
       d="m 628.48502,346.9942 c 1.7768,-1.99565 3.17738,-4.27997 4.77914,-6.41021 0.22054,-0.2933 0.36723,-0.67417 0.68037,-0.8655 4.25844,-2.60196 8.6475,-4.98387 12.97124,-7.47581 1.09024,1.71561 0.53667,2.79935 -0.0905,4.47301 0,0 -13.40159,6.28808 -13.40159,6.28808 l 0,0 c 0.38123,-1.24972 0.0623,-0.36707 0.6433,-1.58806 0.46958,-0.98681 0.092,-0.91092 1.03955,-0.0702 30.44561,-17.93023 14.49417,-9.73688 11.5588,-6.51268 -1.76476,1.9384 -2.99161,4.26339 -4.56376,6.34387 0,0 -13.61655,5.81751 -13.61655,5.81751 z"
       inkscape:connector-curvature="0" />
    <path
       style="fill:#000000;fill-opacity:1;stroke:#045dff;stroke-width:0.40000001;stroke-linejoin:round;stroke-miterlimit:4;stroke-dasharray:none;stroke-opacity:1"
       id="path4186"
       d="m 141.89475,280.46962 c 6.39773,0.27118 12.79396,-0.0689 19.18864,-0.26403 11.80852,-0.55727 23.58328,-1.63889 35.36575,-2.57617 17.15455,-1.52569 34.35416,-2.30773 51.54804,-3.2092 21.97137,-1.01943 43.88379,-3.01796 65.77072,-5.14762 27.82317,-2.67615 55.47251,-6.74975 83.07697,-11.08101 30.17109,-4.71855 60.25428,-9.9638 90.35488,-15.10657 26.92677,-4.75713 53.92819,-9.05851 80.90514,-13.51348 21.96072,-3.68927 43.94151,-7.26298 66.02715,-10.12244 15.14479,-1.97974 30.32052,-3.76078 45.51177,-5.35282 8.73059,-0.99225 17.43706,-2.15933 26.18747,-2.96926 4.21285,-0.30279 8.39217,-0.93067 12.60038,-1.29968 0.73943,-0.13907 2.20423,0.38189 2.92825,-0.0929 0.12455,-0.0817 0.1128,-0.27569 0.1692,-0.41354 0,0 -11.62808,9.3047 -11.62808,9.3047 l 0,0 c -1.06573,-0.18032 -2.15893,-0.0955 -3.23557,-0.0949 -4.11195,0.34458 -8.20495,0.89684 -12.32858,1.09695 -8.58439,0.65936 -17.11744,1.787 -25.68506,2.62042 -14.97612,1.37167 -29.92335,3.07922 -44.84935,4.91048 -21.88076,2.81941 -43.70649,6.02596 -65.4539,9.74422 -26.90444,4.29787 -53.79897,8.64833 -80.64113,13.32313 -30.1098,4.9718 -60.17602,10.20424 -90.30599,15.05467 -27.71213,4.38161 -55.47981,8.51745 -83.41109,11.24637 -22.14471,2.29208 -44.31491,4.48009 -66.55206,5.64709 -17.21409,0.85093 -34.42711,1.76839 -51.59662,3.30627 -12.00401,1.16978 -24.00018,2.48502 -36.05622,2.9983 -6.59748,0.29101 -13.18939,0.62652 -19.79508,0.63999 0,0 11.90437,-8.64904 11.90437,-8.64904 z"
       inkscape:connector-curvature="0" />
    <path
       style="fill:#000000;fill-opacity:1;stroke:#045dff;stroke-width:0.40000001;stroke-linejoin:round;stroke-miterlimit:4;stroke-dasharray:none;stroke-opacity:1"
       id="path4188"
       d="m 142.9015,264.18791 c -2.47718,-0.20126 -4.73478,0.45083 -6.90751,1.61483 -0.82212,0.44044 -3.23693,1.85178 -2.40582,1.42855 3.26942,-1.66487 6.48312,-3.43699 9.72468,-5.15549 -4.83791,4.81172 -8.02951,11.19109 -9.21417,17.92092 -0.22471,1.27654 -0.2659,2.57867 -0.39886,3.868 0.1756,5.71331 1.83001,11.45226 6.68519,14.93437 0.72326,0.51872 1.55693,0.86297 2.3354,1.29445 0.846,0.22059 1.67125,0.54728 2.53801,0.66177 1.60018,0.21136 3.70914,-0.011 5.23045,-0.52483 0.93441,-0.3156 3.53082,-1.75338 2.67844,-1.25721 -11.66384,6.78945 -11.71169,7.15577 -6.67682,2.82787 3.68638,-3.93577 6.19886,-8.69069 6.32204,-14.17371 0.0238,-1.05785 -0.12688,-2.11243 -0.19031,-3.16865 -1.05881,-5.45163 -3.21241,-11.12431 -8.04832,-14.3523 -0.86905,-0.58009 -1.87361,-0.92554 -2.81042,-1.38832 -3.46585,-0.96882 -5.86034,-0.24007 -9.08704,0.94387 0,0 11.33067,-8.75912 11.33067,-8.75912 l 0,0 c 3.63843,-0.90874 6.00577,-1.3258 9.69162,0.004 0.99638,0.56374 2.06714,1.01262 2.98916,1.69121 4.92379,3.62382 7.35949,9.50756 8.58989,15.28048 0.11654,1.12558 0.33602,2.24523 0.34963,3.37675 0.0693,5.76318 -2.35321,10.83767 -6.00246,15.16881 -6.46064,6.36052 -2.9602,3.33164 -17.7085,11.40742 -3.53887,1.9378 -7.68784,1.54406 -11.26372,0.0666 -0.81158,-0.52665 -1.68044,-0.9741 -2.43474,-1.57997 -4.96982,-3.99186 -6.85596,-9.99197 -7.15061,-16.15999 0.10628,-1.35456 0.10598,-2.72173 0.31886,-4.06366 1.0861,-6.84652 4.22219,-13.43286 8.67638,-18.69067 2.3483,-1.46857 13.60589,-9.74507 19.74275,-11.42506 1.65139,-0.45208 3.36905,-0.44798 5.06299,-0.48547 0,0 -11.96686,8.69443 -11.96686,8.69443 z"
       inkscape:connector-curvature="0" />
    <path
       style="fill:#000000;fill-opacity:1;stroke:#045dff;stroke-width:0.40000001;stroke-linejoin:round;stroke-miterlimit:4;stroke-dasharray:none;stroke-opacity:1"
       id="path4190"
       d="m 253.97686,260.49941 c -1.28611,4.19678 -2.26028,8.63138 -1.91786,13.05018 0.0828,1.06907 0.30158,2.12323 0.45238,3.18484 0.28351,1.02386 0.45024,2.08749 0.85053,3.07158 1.5085,3.70847 5.09112,6.36189 8.98458,7.1691 0.96612,0.2003 1.96638,0.16542 2.94957,0.24813 3.06631,-0.45121 3.48572,-0.34199 6.43309,-1.48091 1.12641,-0.43526 4.32444,-2.13803 3.29313,-1.50981 -19.20982,11.70166 -8.29268,4.76134 -5.98755,2.71107 0.9193,-0.81767 1.70719,-1.77211 2.56078,-2.65817 0.64819,-1.00421 1.40506,-1.94608 1.94458,-3.01263 2.1099,-4.17097 2.83754,-9.3979 1.13001,-13.83676 -0.43815,-1.13898 -1.15194,-2.15176 -1.72791,-3.22763 -2.60369,-3.47266 -6.05031,-6.7345 -10.65588,-6.97767 -2.76802,-0.14614 -4.06493,0.55959 -6.64215,1.4148 -6.16959,3.25829 -4.06307,2.15141 6.2911,-3.37427 0,0 -13.21613,5.23803 -13.21613,5.23803 l 0,0 c 15.98745,-9.72765 9.64224,-6.76457 18.18052,-10.52823 2.92774,-0.70383 4.07506,-1.27168 7.13035,-0.84652 4.87521,0.67841 8.43847,4.24442 11.18187,8.035 0.64049,1.17205 1.42129,2.27771 1.92147,3.51616 1.90635,4.72007 1.37082,10.24251 -0.62745,14.84442 -0.49894,1.14904 -1.23213,2.18146 -1.84819,3.27219 -0.82252,0.95675 -1.56629,1.98728 -2.46756,2.87024 -4.48954,4.39838 -16.04095,10.11628 -18.29213,11.35401 -3.1349,1.72362 -6.75511,2.36635 -10.27992,2.46224 -1.0568,-0.17121 -2.14004,-0.22296 -3.17041,-0.51362 -4.1979,-1.18424 -7.94015,-4.31187 -9.61425,-8.345 -0.42904,-1.0336 -0.61856,-2.15104 -0.92784,-3.22656 -0.48235,-2.87947 -0.74911,-3.66328 -0.7102,-6.5704 0.0451,-3.36923 0.8433,-6.6909 1.42659,-9.99089 0,0 13.35488,-6.34292 13.35488,-6.34292 z"
       inkscape:connector-curvature="0" />
    <path
       style="fill:#000000;fill-opacity:1;stroke:#045dff;stroke-width:0.40000001;stroke-linejoin:round;stroke-miterlimit:4;stroke-dasharray:none;stroke-opacity:1"
       id="path4192"
       d="m 353.6716,270.0652 c 5.51681,4.72491 13.09389,4.5662 19.76379,2.64089 1.63387,-0.47163 3.18369,-1.19664 4.77554,-1.79497 1.33424,-0.77599 5.40338,-2.97652 4.00274,-2.32799 -3.01127,1.39429 -5.70037,3.50818 -8.84438,4.56979 -1.04766,0.35375 1.63881,-1.49943 2.3233,-2.36787 2.08997,-2.6516 2.09527,-4.27666 1.83349,-7.44401 -1.63172,-5.3037 -5.7678,-8.93068 -10.79557,-11.04387 -1.02269,-0.42984 -2.10551,-0.69963 -3.15827,-1.04945 -2.83532,-0.46097 -3.6638,-0.92455 -6.52426,-0.0564 -1.68114,0.51021 -18.2773,9.516 6.14688,-3.45572 0,0 -13.2179,5.22232 -13.2179,5.22232 l 0,0 c 5.25124,-3.15779 14.09135,-11.03921 22.05013,-10.39483 1.13728,0.0921 2.23152,0.47734 3.34728,0.71601 7.12607,2.74 12.18355,5.90482 14.88145,13.39107 0.36347,2.53914 0.77884,3.33657 -0.0449,5.85068 -0.57698,1.7609 -2.21072,4.3477 -3.73464,5.39828 -10.24518,7.063 -11.43746,7.53336 -19.20433,11.51978 -1.62138,0.53258 -3.20678,1.19074 -4.86416,1.59775 -7.30548,1.79405 -15.09569,1.37399 -21.22254,-3.31974 0,0 12.48638,-7.65167 12.48638,-7.65167 z"
       inkscape:connector-curvature="0" />
    <path
       style="fill:#000000;fill-opacity:1;stroke:#045dff;stroke-width:0.40000001;stroke-linejoin:round;stroke-miterlimit:4;stroke-dasharray:none;stroke-opacity:1"
       id="path4194"
       d="m 442.75626,240.35161 c -2.00542,6.27738 -4.97289,14.04153 -3.71496,20.73921 0.18207,0.96943 0.64535,1.86421 0.96803,2.79631 0.51857,0.68825 0.94004,1.46179 1.55571,2.06475 3.69319,3.617 9.60877,1.27507 13.65209,-0.25382 9.53359,-4.99208 -3.26027,2.16521 -5.02999,2.98219 -1.20703,0.55722 2.203,-1.49103 3.2626,-2.29394 2.79649,-2.11901 5.25035,-4.45465 7.58829,-7.05519 3.35455,-4.44773 4.09453,-8.05527 3.01689,-13.43377 -1.45642,-4.76359 -4.21039,-7.79388 -8.50379,-10.14279 -1.77953,-0.79159 -3.50096,-1.24688 -5.4179,-0.58072 -0.76334,0.26527 -2.87627,1.47312 -2.17292,1.07515 11.56073,-6.54129 12.52348,-7.47559 7.31027,-3.48478 0,0 -13.26613,5.32313 -13.26613,5.32313 l 0,0 c 6.44667,-5.37659 3.65581,-3.27243 17.29806,-10.7581 2.78597,-1.52869 5.80375,-0.85546 8.44107,0.5201 4.42452,2.76921 7.39892,6.1699 9.04364,11.21225 0.19235,0.82032 0.44828,1.62829 0.57705,2.46096 0.67449,4.36158 -0.62757,8.70435 -3.16366,12.24661 -0.6922,0.82642 -1.33213,1.69959 -2.0766,2.47926 -7.68912,8.05261 -18.2747,13.46296 -28.10418,18.17342 -4.87638,1.56388 -10.82871,3.28481 -14.82786,-1.16274 -0.66931,-0.74436 -1.13371,-1.65012 -1.70056,-2.47517 -0.34532,-1.06117 -0.83928,-2.08504 -1.03594,-3.18351 -1.23454,-6.89546 1.71653,-14.55333 3.24678,-21.18531 0,0 13.05401,-6.0635 13.05401,-6.0635 z"
       inkscape:connector-curvature="0" />
    <path
       style="fill:#000000;fill-opacity:1;stroke:#045dff;stroke-width:0.40000001;stroke-linejoin:round;stroke-miterlimit:4;stroke-dasharray:none;stroke-opacity:1"
       id="path4196"
       d="m 534.39856,222.57204 c -2.10843,4.01309 -3.10939,8.36324 -3.64874,12.82695 0.007,3.55322 -0.61818,8.08195 1.76458,11.12658 0.39381,0.5032 0.94624,0.85896 1.41936,1.28844 4.24465,2.64524 7.98596,2.42313 12.68099,1.39359 0.86371,-0.32499 1.75033,-0.5946 2.59113,-0.97495 0.9407,-0.42554 3.63567,-1.95746 2.7433,-1.43816 -3.12325,1.81751 -6.20343,3.72239 -9.4378,5.33387 -0.96582,0.4812 1.78369,-1.22269 2.60082,-1.92743 2.37121,-2.04508 2.64099,-2.68413 4.49974,-5.16657 2.45699,-4.20019 3.94442,-8.42829 0.74956,-12.72929 -0.49972,-0.67273 -1.14835,-1.22083 -1.72252,-1.83125 -5.20933,-3.56589 -11.18083,-3.67208 -17.18797,-2.71138 -0.83506,0.22564 -1.67012,0.45127 -2.50519,0.67691 0,0 11.45896,-8.74135 11.45896,-8.74135 l 0,0 c 0.84812,-0.17469 1.69624,-0.34938 2.54436,-0.52407 6.40247,-0.68306 12.66177,-0.15574 17.99662,3.83161 0.63026,0.70347 1.34168,1.34189 1.89077,2.11039 3.43822,4.81208 2.47103,9.38225 -0.17714,14.25574 -1.67481,2.48352 -2.12857,3.43981 -4.29844,5.53118 -0.78901,0.76046 -1.60841,1.5108 -2.54184,2.08487 -6.58485,4.04973 -13.2013,8.70266 -20.71788,10.92033 -5.15502,0.83823 -9.12955,0.64306 -13.52519,-2.48763 -0.55441,-0.55828 -1.19447,-1.04294 -1.66325,-1.67484 -2.48974,-3.35617 -2.05,-8.06823 -2.02845,-11.96884 0.17838,-1.77208 0.34835,-3.92011 0.70797,-5.67105 0.52373,-2.54993 1.50167,-4.97447 2.32269,-7.43326 0,0 13.48356,-6.10039 13.48356,-6.10039 z"
       inkscape:connector-curvature="0" />
    <path
       style="fill:#000000;fill-opacity:1;stroke:#045dff;stroke-width:0.40000001;stroke-linejoin:round;stroke-miterlimit:4;stroke-dasharray:none;stroke-opacity:1"
       id="path4198"
       d="m 616.36168,216.60278 c -0.32752,5.37221 2.73302,9.36236 6.6252,12.66687 1.16952,0.71082 2.62116,1.7079 3.97121,2.10216 3.07894,0.89914 6.53684,-0.18266 9.41723,-1.17636 0.88642,-0.38221 1.79552,-0.71561 2.65926,-1.14664 0.90984,-0.45402 3.54926,-1.98607 2.65363,-1.5046 -3.24694,1.74548 -6.31353,3.85943 -9.70809,5.29692 -0.96404,0.40825 1.57777,-1.38275 2.28592,-2.15384 1.69347,-1.84399 2.02716,-2.64688 3.27399,-4.75047 1.89082,-4.3238 2.05985,-9.22383 -0.33788,-13.43217 -0.45477,-0.79818 -1.10679,-1.4665 -1.66018,-2.19975 -0.66536,-0.62332 -1.25217,-1.34286 -1.99607,-1.86996 -3.6045,-2.55403 -8.23492,-2.19108 -12.17545,-0.65492 -1.12647,0.43914 -2.15177,1.10319 -3.22765,1.65478 3.0696,-1.68078 6.1392,-3.36157 9.20879,-5.04235 0,0 -13.23227,5.17254 -13.23227,5.17254 l 0,0 c 5.041,-2.98597 10.08199,-5.97194 15.12299,-8.95791 1.13871,-0.47926 2.23598,-1.07228 3.41613,-1.43779 5.88084,-1.82141 11.08085,-0.769 15.22231,3.82562 0.60444,0.83481 1.30729,1.60655 1.81334,2.50442 2.56347,4.54835 2.72276,9.76358 0.95461,14.58518 -1.2385,2.30579 -1.50379,3.05187 -3.18659,5.12782 -4.59563,5.66929 -9.19669,6.74007 -16.92129,11.30119 -0.89334,0.52748 -1.82812,0.98558 -2.77596,1.40735 -0.89552,0.39848 -1.83108,0.70005 -2.74663,1.05008 -5.83078,1.55255 -9.31693,1.69181 -14.26526,-2.10046 -4.09287,-3.75566 -7.13697,-8.03005 -7.6289,-13.72888 0,0 13.23761,-6.53883 13.23761,-6.53883 z"
       inkscape:connector-curvature="0" />
    <path
       style="fill:#000000;fill-opacity:1;stroke:#045dff;stroke-width:0.40000001;stroke-linejoin:round;stroke-miterlimit:4;stroke-dasharray:none;stroke-opacity:1"
       id="path4200"
       d="m 680.54287,214.13873 c 2.85783,4.89436 8.41978,6.99071 13.49353,8.77346 7.56568,2.22499 14.25836,1.6754 21.78598,-0.19783 1.129,-0.44972 2.29184,-0.82233 3.38699,-1.34914 1.07314,-0.51624 4.16635,-2.30639 3.10195,-1.77235 -3.15344,1.58215 -6.07816,3.6545 -9.37213,4.91825 -0.97042,0.3723 1.54453,-1.39798 2.23091,-2.17849 1.75144,-1.99162 1.56408,-2.10374 2.48293,-4.47551 0.759,-5.02182 -1.51966,-9.57402 -5.72067,-12.42377 -1.00547,-0.68206 -2.14794,-1.13623 -3.22192,-1.70435 -5.75862,-2.26036 -12.10196,-3.24452 -18.25645,-2.28575 -1.21113,0.18868 -2.39802,0.50923 -3.59703,0.76384 -1.10693,0.38389 -2.21386,0.76778 -3.3208,1.15167 0,0 11.23444,-8.70552 11.23444,-8.70552 l 0,0 c 1.12963,-0.33073 2.25926,-0.66146 3.38889,-0.9922 1.23643,-0.21596 2.4626,-0.50233 3.70928,-0.64787 6.36329,-0.74287 12.82921,0.51083 18.69006,2.97818 1.15573,0.64416 2.3866,1.16895 3.46719,1.93247 4.72096,3.33575 6.99865,8.11206 6.66207,13.80625 -0.25194,0.8994 -0.36962,1.84777 -0.75582,2.6982 -0.5766,1.26971 -2.69647,4.04908 -3.79732,4.79793 -6.87118,4.67408 -13.66462,9.51131 -21.57837,12.07344 -7.70033,1.66982 -14.63825,2.01444 -22.25042,-0.46738 -5.514,-2.01743 -11.24388,-4.38962 -14.64647,-9.45795 0,0 12.88318,-7.23558 12.88318,-7.23558 z"
       inkscape:connector-curvature="0" />
  </g>
</svg>
